<svg width="1440" height="964" viewBox="0 0 1440 964" fill="none" xmlns="http://www.w3.org/2000/svg">
<g clip-path="url(#clip0_1_31)">
<rect width="1440" height="964" fill="#F1F5F9"/>
<g opacity="0.05">
<path d="M224.67 184.296C257.236 221.505 272.391 264.704 270.133 313.91C267.776 348.453 257.153 379.165 238.247 406.06C219.352 432.97 195.455 453.148 166.557 466.623C140.521 478.764 111.903 484.255 80.6665 483.094L84.6456 415.37C116.292 416.34 143.201 406.917 165.398 387.078C187.596 367.253 199.981 341.635 202.558 310.244C203.902 279.429 194.47 252.522 174.263 229.504C153.43 206.792 127.673 194.35 96.9708 192.187L100.956 124.475C150.231 127.938 191.466 147.889 224.67 184.296ZM85.7221 337.413C36.759 333.539 -4.1659 313.205 -37.0481 276.398C-69.1038 238.703 -83.7491 195.25 -80.9864 146.058C-77.0037 96.8098 -56.6161 55.7338 -19.7937 22.841C17.9027 -9.20361 61.4049 -23.7532 110.694 -20.7942L105.958 46.9096C75.152 45.0589 48.0395 54.0889 24.6348 73.9775C1.81004 94.6074 -10.833 120.207 -13.2783 150.788C-15.0306 181.296 -5.94955 208.252 13.9445 231.655C34.3693 254.572 59.863 267.262 90.4502 269.713L85.7221 337.413Z" fill="#C33626"/>
</g>
<g opacity="0.03">
<path d="M861.158 461.732C897.769 504.231 914.576 553.371 911.577 609.17C908.594 648.333 896.271 683.078 874.584 713.42C852.91 743.778 825.622 766.455 792.721 781.483C763.078 795.024 730.565 800.998 695.141 799.403L700.258 722.612C736.148 723.995 766.757 713.545 792.114 691.237C817.472 668.946 831.75 639.995 834.952 604.409C836.752 569.465 826.292 538.858 803.574 512.566C780.144 486.617 751.036 472.273 716.227 469.546L721.35 392.769C777.217 397.137 823.815 420.136 861.158 461.732ZM702.173 634.188C646.664 629.358 600.421 605.927 563.447 563.88C527.419 520.833 511.193 471.411 514.765 415.633C519.722 359.801 543.215 313.387 585.279 276.402C628.327 240.386 677.805 224.269 733.691 228.065L727.716 304.825C692.786 302.451 661.95 312.453 635.223 334.806C609.147 358.005 594.577 386.932 591.53 421.602C589.271 456.193 599.332 486.853 621.691 513.579C644.657 539.757 673.464 554.379 708.14 557.432L702.173 634.188Z" fill="#C33626"/>
</g>
<g opacity="0.05">
<path d="M1479.67 715.296C1512.24 752.505 1527.39 795.704 1525.13 844.91C1522.78 879.453 1512.15 910.165 1493.25 937.06C1474.35 963.97 1450.45 984.148 1421.56 997.623C1395.52 1009.76 1366.9 1015.26 1335.67 1014.09L1339.65 946.37C1371.29 947.34 1398.2 937.916 1420.4 918.078C1442.6 898.253 1454.98 872.635 1457.56 841.244C1458.9 810.429 1449.47 783.522 1429.26 760.504C1408.43 737.792 1382.67 725.35 1351.97 723.187L1355.96 655.475C1405.23 658.938 1446.47 678.889 1479.67 715.296ZM1340.72 868.412C1291.76 864.539 1250.83 844.205 1217.95 807.398C1185.9 769.702 1171.25 726.25 1174.01 677.058C1178 627.81 1198.38 586.734 1235.21 553.841C1272.9 521.796 1316.4 507.247 1365.69 510.206L1360.96 577.91C1330.15 576.059 1303.04 585.089 1279.63 604.977C1256.81 625.607 1244.17 651.207 1241.72 681.788C1239.97 712.296 1249.05 739.251 1268.94 762.655C1289.37 785.572 1314.86 798.262 1345.45 800.712L1340.72 868.412Z" fill="#C33626"/>
</g>
<g opacity="0.05">
<path d="M1200.35 839.92C1208.43 849.146 1212.19 859.857 1211.63 872.058C1211.04 880.622 1208.41 888.238 1203.72 894.906C1199.03 901.579 1193.11 906.582 1185.94 909.923C1179.49 912.933 1172.39 914.295 1164.65 914.007L1165.63 897.215C1173.48 897.455 1180.15 895.119 1185.66 890.2C1191.16 885.284 1194.23 878.932 1194.87 871.149C1195.2 863.508 1192.86 856.836 1187.85 851.129C1182.69 845.498 1176.3 842.413 1168.69 841.876L1169.68 825.087C1181.9 825.946 1192.12 830.893 1200.35 839.92ZM1165.9 877.885C1153.76 876.925 1143.61 871.883 1135.46 862.756C1127.51 853.41 1123.88 842.636 1124.56 830.439C1125.55 818.227 1130.61 808.043 1139.74 799.887C1149.08 791.941 1159.87 788.334 1172.09 789.067L1170.92 805.855C1163.28 805.396 1156.56 807.635 1150.75 812.566C1145.09 817.681 1141.96 824.029 1141.35 831.611C1140.92 839.176 1143.17 845.86 1148.1 851.662C1153.17 857.345 1159.49 860.491 1167.07 861.099L1165.9 877.885Z" fill="#C33626"/>
</g>
<g opacity="0.05">
<path d="M272.353 112.92C280.427 122.146 284.185 132.857 283.625 145.058C283.041 153.622 280.407 161.238 275.719 167.906C271.034 174.579 265.109 179.582 257.943 182.923C251.488 185.933 244.392 187.295 236.647 187.007L237.633 170.215C245.48 170.455 252.152 168.119 257.656 163.2C263.16 158.284 266.231 151.932 266.87 144.149C267.203 136.508 264.865 129.836 259.854 124.129C254.689 118.498 248.302 115.413 240.689 114.876L241.678 98.087C253.895 98.9458 264.12 103.893 272.353 112.92ZM237.9 150.885C225.76 149.925 215.613 144.883 207.459 135.756C199.511 126.41 195.88 115.636 196.565 103.439C197.552 91.2274 202.607 81.0426 211.738 72.8868C221.084 64.9413 231.871 61.3337 244.092 62.0674L242.918 78.8546C235.279 78.3958 228.557 80.6348 222.754 85.5662C217.094 90.6814 213.959 97.0287 213.353 104.611C212.919 112.176 215.17 118.86 220.103 124.662C225.167 130.345 231.489 133.491 239.073 134.099L237.9 150.885Z" fill="#C33626"/>
</g>
</g>
<defs>
<clipPath id="clip0_1_31">
<rect width="1440" height="964" fill="white"/>
</clipPath>
</defs>
</svg>
