<svg width="146" height="52" viewBox="0 0 146 52" fill="none" xmlns="http://www.w3.org/2000/svg">
<g id="Logo">
<g id="g20">
<path id="path22" d="M29.3982 27.3167C30.8296 32.2464 30.3603 36.9758 27.9893 41.5064C26.2521 44.653 23.9055 47.0766 20.9469 48.7776C17.9889 50.4805 14.8554 51.3306 11.5457 51.3306C8.56374 51.3306 5.63052 50.5916 2.74279 49.1119L6.08814 42.9144C9.02276 44.3942 11.9677 44.6882 14.9262 43.7954C17.8843 42.9041 20.1733 41.0371 21.7928 38.1967C23.2711 35.3564 23.5641 32.4109 22.6728 29.3586C21.7093 26.3077 19.832 24.007 17.0385 22.4565L20.3838 16.2604C24.8676 18.7482 27.8716 22.4344 29.3982 27.3167ZM9.60931 35.6269C5.17291 33.1142 2.21485 29.4055 0.736048 24.4998C-0.626003 19.5467 -0.0975923 14.8159 2.32034 10.3087C4.85549 5.84977 8.57546 2.87951 13.4826 1.40025C18.4347 0.0391312 23.1656 0.5788 27.6728 3.01971L24.2571 9.18199C21.4402 7.6563 18.4934 7.31638 15.419 8.1608C12.3667 9.10041 10.0543 10.9543 8.48263 13.7243C6.97945 16.5178 6.65124 19.4525 7.49614 22.5273C8.4123 25.5796 10.254 27.892 13.024 29.4646L9.60931 35.6269Z" fill="#C33626"/>
</g>
<g id="g24">
<path id="path26" d="M30.2068 11.9106H30.8684V14.0425H31.3607V11.9106H32.0185V11.5237H30.2068V11.9106Z" fill="#C33626"/>
</g>
<g id="g28">
<path id="path30" d="M34.4404 11.5238L33.8342 13.4495L33.2284 11.5238H32.5237V14.0421H32.9063V11.9482L33.5331 14.0421H33.8342H34.1356L34.7625 11.9482V14.0421H35.1451V11.5238H34.4404Z" fill="#C33626"/>
</g>
<g id="g32">
<path id="path34" d="M56.3176 8.88044L54.9457 11.4217C56.0911 12.0575 56.8615 13.0013 57.2562 14.2527C57.6219 15.5041 57.5015 16.7123 56.8952 17.8775C56.2308 19.0421 55.2922 19.8078 54.0792 20.1735C52.8658 20.5397 51.658 20.4192 50.4544 19.812L49.0825 22.3542C50.2664 22.9609 51.47 23.2638 52.6928 23.2638C54.0501 23.2638 55.3353 22.9154 56.5487 22.2168C57.7617 21.5191 58.7242 20.5252 59.4369 19.2348C60.4089 17.3767 60.6016 15.4366 60.0146 13.4148C59.3886 11.4128 58.1565 9.90069 56.3176 8.88044Z" fill="#231F20"/>
</g>
<g id="g36">
<path id="path38" d="M51.8988 16.8232L53.2993 14.2961C52.1633 13.6509 51.4079 12.7024 51.0324 11.451C50.6854 10.1897 50.8205 8.98617 51.4365 7.84027C52.0812 6.70421 53.0298 5.94418 54.2816 5.55877C55.5429 5.21228 56.7511 5.35153 57.9064 5.97747L59.3074 3.45029C57.4586 2.44926 55.5185 2.22749 53.4874 2.78591C51.475 3.39262 49.9493 4.61073 48.9094 6.43977C47.9177 8.28803 47.7011 10.2282 48.2595 12.2598C48.8658 14.2717 50.0792 15.7927 51.8988 16.8232Z" fill="#231F20"/>
</g>
<g id="g40">
<path id="path42" d="M65.5484 15.7832V11.3065H68.3353V8.41827H65.5484V2.49745H62.6602V15.7832C62.6602 17.1504 62.9945 18.3995 63.6635 19.5308C64.3326 20.6622 65.2305 21.562 66.3572 22.231C67.4834 22.9006 68.7348 23.2349 70.1118 23.2349V20.3467C68.8506 20.3467 67.7745 19.9017 66.8842 19.0109C65.9933 18.1205 65.5484 17.0444 65.5484 15.7832Z" fill="#231F20"/>
</g>
<g id="g44">
<path id="path46" d="M83.8913 15.7832C83.8913 17.0444 83.4436 18.1205 82.5485 19.0109C81.653 19.9017 80.5793 20.3467 79.3279 20.3467C78.0666 20.3467 76.9906 19.9017 76.1002 19.0109C75.2094 18.1205 74.7644 17.0444 74.7644 15.7832V8.40374H71.8762V15.7832C71.8762 17.1504 72.2105 18.3995 72.8796 19.5308C73.5487 20.6622 74.447 21.562 75.5732 22.231C76.6999 22.9006 77.9508 23.2349 79.3279 23.2349C80.6951 23.2349 81.9418 22.9006 83.0685 22.231C84.1947 21.562 85.0949 20.6622 85.7687 19.5308C86.4424 18.3995 86.7795 17.1504 86.7795 15.7832V8.40374H83.8913V15.7832Z" fill="#231F20"/>
</g>
<g id="g48">
<path id="path50" d="M99.2238 19.0109C98.3334 19.9017 97.2573 20.3467 95.9961 20.3467C94.7349 20.3467 93.6588 19.9017 92.7684 19.0109C91.8776 18.121 91.4326 17.0449 91.4326 15.7832C91.4326 14.5224 91.8776 13.4464 92.7684 12.556C93.6588 11.6652 94.7349 11.2197 95.9961 11.2197C97.2573 11.2197 98.3334 11.6652 99.2238 12.556C100.114 13.4464 100.56 14.5224 100.56 15.7832C100.56 17.0449 100.114 18.121 99.2238 19.0109ZM100.56 9.90551C99.9242 9.40523 99.2186 9.01748 98.444 8.7432C97.6685 8.46891 96.8532 8.33154 95.9961 8.33154C94.6289 8.33154 93.3798 8.6663 92.2485 9.33537C91.1171 10.0044 90.2169 10.9047 89.5478 12.0356C88.8787 13.1669 88.5444 14.416 88.5444 15.7832C88.5444 17.1504 88.8787 18.3995 89.5478 19.5308C90.2169 20.6622 91.1171 21.5624 92.2485 22.2315C93.3798 22.901 94.6289 23.2349 95.9961 23.2349C97.3633 23.2349 98.6077 22.9029 99.7292 22.239C100.851 21.5746 101.744 20.6861 102.408 19.5744C103.072 18.4623 103.419 17.2179 103.448 15.8413V2.49745H100.56V9.90551Z" fill="#231F20"/>
</g>
<g id="g52">
<path id="path54" d="M116.412 9.33525C115.28 8.66618 114.031 8.33141 112.664 8.33141C111.296 8.33141 110.05 8.66618 108.923 9.33525C107.797 10.0043 106.897 10.9045 106.223 12.0359C105.549 13.1668 105.212 14.4163 105.212 15.7831C105.212 17.8339 106.011 19.6245 107.61 21.1553C109.092 22.4747 110.767 23.1677 112.635 23.2347L112.707 20.347C111.965 20.3273 111.246 20.1234 110.548 19.7328C109.85 19.3432 109.268 18.8063 108.801 18.1227C108.334 17.4396 108.101 16.6594 108.101 15.7831C108.101 14.5223 108.548 13.4463 109.443 12.5559C110.339 11.665 111.412 11.2196 112.664 11.2196C113.665 11.2196 114.554 11.5038 115.328 12.0715C116.104 12.6398 116.655 13.3764 116.982 14.2818H112.548V17.1695H119.885V17.1554H120.116V15.769C120.096 14.3826 119.757 13.1312 119.098 12.0143C118.438 10.8975 117.543 10.0043 116.412 9.33525Z" fill="#231F20"/>
</g>
<g id="g56">
<path id="path58" d="M133.087 9.41461C131.96 8.74085 130.709 8.40374 129.332 8.40374C127.965 8.40374 126.719 8.74085 125.591 9.41461C124.465 10.0884 123.565 10.9886 122.891 12.1153C122.217 13.2415 121.88 14.4887 121.88 15.8554V23.2349H124.769V15.8554C124.769 14.6045 125.216 13.5303 126.112 12.6352C127.007 11.7397 128.08 11.2919 129.332 11.2919C130.593 11.2919 131.669 11.7397 132.56 12.6352C133.45 13.5303 133.895 14.6045 133.895 15.8554V23.2349H136.784V15.8554C136.784 14.4887 136.449 13.2415 135.78 12.1153C135.111 10.9886 134.213 10.0884 133.087 9.41461Z" fill="#231F20"/>
</g>
<g id="g60">
<path id="path62" d="M142.772 19.0107C141.881 18.1208 141.437 17.0448 141.437 15.7831V11.3064H144.223V8.41815H141.437V2.49733H138.548V15.7831C138.548 17.1503 138.882 18.3993 139.551 19.5307C140.22 20.6621 141.119 21.5623 142.245 22.2314C143.371 22.9009 144.622 23.2347 146 23.2347V20.3465C144.738 20.3465 143.662 19.9016 142.772 19.0107Z" fill="#231F20"/>
</g>
<g id="g64">
<path id="path66" d="M58.6382 41.2142C57.7446 42.1032 56.6718 42.5524 55.4101 42.5524C54.1573 42.5524 53.0841 42.1032 52.1909 41.2142C51.293 40.3253 50.8485 39.2478 50.8485 37.9861C50.8485 36.7333 51.293 35.66 52.1909 34.7669C53.0841 33.869 54.1573 33.4245 55.4101 33.4245C56.6718 33.4245 57.7446 33.869 58.6382 34.7669C59.5272 35.66 59.9717 36.7333 59.9717 37.9861C59.9717 39.2478 59.5272 40.3253 58.6382 41.2142ZM59.1634 31.5476C58.0367 30.8739 56.7839 30.5372 55.4101 30.5372C54.0541 30.5372 52.8102 30.865 51.6836 31.5294C51.3887 31.7038 51.1116 31.8946 50.8485 32.0995V30.6076H47.957V37.9275V40.1513V46.8758V51.2714H50.8485V46.8758V43.8769C51.4815 44.3706 52.1862 44.7523 52.9631 45.0261C53.7353 45.2999 54.5525 45.4392 55.4101 45.4392C56.7839 45.4392 58.0367 45.1025 59.1634 44.4334C60.2905 43.7644 61.1884 42.8665 61.8575 41.7393C62.5265 40.6169 62.8632 39.3645 62.8632 37.9861C62.8632 36.6212 62.5265 35.3731 61.8575 34.246C61.1884 33.1188 60.2905 32.2209 59.1634 31.5476Z" fill="#231F20"/>
</g>
<g id="g68">
<path id="path70" d="M75.3047 41.2142C74.4157 42.1031 73.3382 42.5523 72.0765 42.5523C70.8148 42.5523 69.7416 42.1031 68.8484 41.2142C67.9594 40.3252 67.515 39.2478 67.515 37.986C67.515 36.7332 67.9594 35.66 68.8484 34.7668C69.7416 33.8689 70.8148 33.4245 72.0765 33.4245C73.3382 33.4245 74.4157 33.8689 75.3047 34.7668C76.1936 35.66 76.6428 36.7332 76.6428 37.986C76.6428 39.2478 76.1936 40.3252 75.3047 41.2142ZM75.8031 31.5293C74.6759 30.8649 73.4367 30.5372 72.0765 30.5372C70.7117 30.5372 69.4636 30.8738 68.3317 31.5476C67.2003 32.2209 66.2978 33.1188 65.6292 34.2459C64.9601 35.3731 64.6277 36.6212 64.6277 37.986C64.6277 39.3645 64.9601 40.6168 65.6292 41.7393C66.2978 42.8665 67.2003 43.7643 68.3317 44.4334C69.4636 45.1025 70.7117 45.4391 72.0765 45.4391C72.9341 45.4391 73.7513 45.2999 74.5235 45.026C75.3 44.7522 76.0052 44.3706 76.6428 43.8769V45.4663H79.5296V37.9274C79.4982 36.5537 79.1526 35.3055 78.4878 34.1967C77.8234 33.0831 76.9302 32.1942 75.8031 31.5293Z" fill="#231F20"/>
</g>
<g id="g72">
<path id="path74" d="M93.3086 30.6074V37.9869C93.3086 39.2482 92.8608 40.3242 91.9657 41.2141C91.0702 42.1054 89.997 42.5504 88.7456 42.5504C87.4839 42.5504 86.4078 42.1054 85.5175 41.2141C84.6271 40.3242 84.1821 39.2482 84.1821 37.9869V30.6074H81.2935V37.9869C81.2935 39.3541 81.6278 40.6032 82.2968 41.7345C82.9659 42.8654 83.8642 43.7657 84.9905 44.4347C86.1171 45.1043 87.3681 45.4386 88.7456 45.4386C89.6022 45.4386 90.418 45.3012 91.1931 45.0274C91.962 44.755 92.662 44.3752 93.2936 43.8894C93.2912 45.146 92.8467 46.2183 91.9587 47.1063C91.0679 47.9967 89.9918 48.4426 88.7311 48.4426V51.3303C90.0978 51.3303 91.3468 50.996 92.4787 50.327C93.6096 49.6579 94.5047 48.7623 95.1648 47.6408C95.824 46.5193 96.1635 45.2651 96.1827 43.8787H96.1973V38.0014V30.622V30.6074H93.3086Z" fill="#231F20"/>
</g>
</g>
</svg>
