<svg width="87" height="87" viewBox="0 0 87 87" fill="none" xmlns="http://www.w3.org/2000/svg">
<g id="Ornament 11">
<path d="M83.2524 20.0788C83.4915 20.4929 83.7243 20.9111 83.9507 21.3332C83.5395 21.0642 83.2647 20.604 83.2524 20.0788Z" fill="#EF4444"/>
<path d="M74.8109 9.43508C75.5293 10.1093 76.2261 10.8061 76.9003 11.5245C76.6396 12.0064 76.1298 12.3336 75.5435 12.3336C74.692 12.3336 74.0018 11.6434 74.0018 10.7919C74.0018 10.2056 74.329 9.69579 74.8109 9.43508Z" fill="#EF4444"/>
<path d="M65.0022 2.38466C65.4243 2.61111 65.8425 2.84393 66.2566 3.08298C65.7314 3.07072 65.2712 2.79588 65.0022 2.38466Z" fill="#EF4444"/>
<path d="M20.0788 3.08298C20.4929 2.84393 20.9111 2.61111 21.3332 2.38466C21.0642 2.79588 20.604 3.07072 20.0788 3.08298Z" fill="#EF4444"/>
<path d="M9.43508 11.5245C10.1093 10.8061 10.8061 10.1093 11.5245 9.43508C12.0064 9.69579 12.3336 10.2056 12.3336 10.7919C12.3336 11.6434 11.6434 12.3336 10.7919 12.3336C10.2056 12.3336 9.69579 12.0064 9.43508 11.5245Z" fill="#EF4444"/>
<path d="M2.38466 21.3332C2.61111 20.9111 2.84393 20.4929 3.08298 20.0788C3.07072 20.604 2.79588 21.0642 2.38466 21.3332Z" fill="#EF4444"/>
<path d="M83.9507 65.0022C83.7243 65.4243 83.4915 65.8425 83.2524 66.2566C83.2647 65.7314 83.5395 65.2712 83.9507 65.0022Z" fill="#EF4444"/>
<path d="M76.9003 74.8109C76.6396 74.329 76.1298 74.0018 75.5435 74.0018C74.692 74.0018 74.0018 74.692 74.0018 75.5435C74.0018 76.1298 74.329 76.6396 74.8109 76.9003C75.5293 76.2261 76.2261 75.5293 76.9003 74.8109Z" fill="#EF4444"/>
<path d="M66.2566 83.2524C65.7314 83.2647 65.2712 83.5395 65.0022 83.9507C65.4243 83.7243 65.8425 83.4915 66.2566 83.2524Z" fill="#EF4444"/>
<path d="M21.3332 83.9507C21.0642 83.5395 20.604 83.2647 20.0788 83.2524C20.4929 83.4915 20.9111 83.7243 21.3332 83.9507Z" fill="#EF4444"/>
<path d="M11.5245 76.9003C12.0064 76.6396 12.3336 76.1298 12.3336 75.5435C12.3336 74.692 11.6434 74.0018 10.7919 74.0018C10.2056 74.0018 9.69579 74.329 9.43508 74.8109C10.1093 75.5293 10.8061 76.2261 11.5245 76.9003Z" fill="#EF4444"/>
<path d="M3.08298 66.2566C3.07072 65.7314 2.79588 65.2712 2.38466 65.0022C2.61111 65.4243 2.84393 65.8425 3.08298 66.2566Z" fill="#EF4444"/>
<path d="M30.8341 1.5417C30.8341 2.39316 30.1438 3.08341 29.2924 3.08341C28.4409 3.08341 27.7507 2.39316 27.7507 1.5417C27.7507 0.690244 28.4409 0 29.2924 0C30.1438 0 30.8341 0.690244 30.8341 1.5417Z" fill="#EF4444"/>
<path d="M40.0843 1.5417C40.0843 2.39316 39.394 3.08341 38.5426 3.08341C37.6911 3.08341 37.0009 2.39316 37.0009 1.5417C37.0009 0.690244 37.6911 0 38.5426 0C39.394 0 40.0843 0.690244 40.0843 1.5417Z" fill="#EF4444"/>
<path d="M49.3345 1.5417C49.3345 2.39316 48.6443 3.08341 47.7928 3.08341C46.9414 3.08341 46.2511 2.39316 46.2511 1.5417C46.2511 0.690244 46.9414 0 47.7928 0C48.6443 0 49.3345 0.690244 49.3345 1.5417Z" fill="#EF4444"/>
<path d="M58.5847 1.5417C58.5847 2.39316 57.8945 3.08341 57.043 3.08341C56.1916 3.08341 55.5013 2.39316 55.5013 1.5417C55.5013 0.690244 56.1916 0 57.043 0C57.8945 0 58.5847 0.690244 58.5847 1.5417Z" fill="#EF4444"/>
<path d="M21.5839 10.7919C21.5839 11.6434 20.8936 12.3336 20.0421 12.3336C19.1907 12.3336 18.5004 11.6434 18.5004 10.7919C18.5004 9.94047 19.1907 9.25022 20.0421 9.25022C20.8936 9.25022 21.5839 9.94047 21.5839 10.7919Z" fill="#EF4444"/>
<path d="M30.8341 10.7919C30.8341 11.6434 30.1438 12.3336 29.2924 12.3336C28.4409 12.3336 27.7507 11.6434 27.7507 10.7919C27.7507 9.94047 28.4409 9.25022 29.2924 9.25022C30.1438 9.25022 30.8341 9.94047 30.8341 10.7919Z" fill="#EF4444"/>
<path d="M40.0843 10.7919C40.0843 11.6434 39.394 12.3336 38.5426 12.3336C37.6911 12.3336 37.0009 11.6434 37.0009 10.7919C37.0009 9.94047 37.6911 9.25022 38.5426 9.25022C39.394 9.25022 40.0843 9.94047 40.0843 10.7919Z" fill="#EF4444"/>
<path d="M49.3345 10.7919C49.3345 11.6434 48.6443 12.3336 47.7928 12.3336C46.9414 12.3336 46.2511 11.6434 46.2511 10.7919C46.2511 9.94047 46.9414 9.25022 47.7928 9.25022C48.6443 9.25022 49.3345 9.94047 49.3345 10.7919Z" fill="#EF4444"/>
<path d="M58.5847 10.7919C58.5847 11.6434 57.8945 12.3336 57.043 12.3336C56.1916 12.3336 55.5013 11.6434 55.5013 10.7919C55.5013 9.94047 56.1916 9.25022 57.043 9.25022C57.8945 9.25022 58.5847 9.94047 58.5847 10.7919Z" fill="#EF4444"/>
<path d="M67.835 10.7919C67.835 11.6434 67.1447 12.3336 66.2933 12.3336C65.4418 12.3336 64.7515 11.6434 64.7515 10.7919C64.7515 9.94047 65.4418 9.25022 66.2933 9.25022C67.1447 9.25022 67.835 9.94047 67.835 10.7919Z" fill="#EF4444"/>
<path d="M12.3336 20.0421C12.3336 20.8936 11.6434 21.5839 10.7919 21.5839C9.94047 21.5839 9.25022 20.8936 9.25022 20.0421C9.25022 19.1907 9.94047 18.5004 10.7919 18.5004C11.6434 18.5004 12.3336 19.1907 12.3336 20.0421Z" fill="#EF4444"/>
<path d="M21.5839 20.0421C21.5839 20.8936 20.8936 21.5839 20.0421 21.5839C19.1907 21.5839 18.5004 20.8936 18.5004 20.0421C18.5004 19.1907 19.1907 18.5004 20.0421 18.5004C20.8936 18.5004 21.5839 19.1907 21.5839 20.0421Z" fill="#EF4444"/>
<path d="M30.8341 20.0421C30.8341 20.8936 30.1438 21.5839 29.2924 21.5839C28.4409 21.5839 27.7507 20.8936 27.7507 20.0421C27.7507 19.1907 28.4409 18.5004 29.2924 18.5004C30.1438 18.5004 30.8341 19.1907 30.8341 20.0421Z" fill="#EF4444"/>
<path d="M40.0843 20.0421C40.0843 20.8936 39.394 21.5839 38.5426 21.5839C37.6911 21.5839 37.0009 20.8936 37.0009 20.0421C37.0009 19.1907 37.6911 18.5004 38.5426 18.5004C39.394 18.5004 40.0843 19.1907 40.0843 20.0421Z" fill="#EF4444"/>
<path d="M49.3345 20.0421C49.3345 20.8936 48.6443 21.5839 47.7928 21.5839C46.9414 21.5839 46.2511 20.8936 46.2511 20.0421C46.2511 19.1907 46.9414 18.5004 47.7928 18.5004C48.6443 18.5004 49.3345 19.1907 49.3345 20.0421Z" fill="#EF4444"/>
<path d="M58.5847 20.0421C58.5847 20.8936 57.8945 21.5839 57.043 21.5839C56.1916 21.5839 55.5013 20.8936 55.5013 20.0421C55.5013 19.1907 56.1916 18.5004 57.043 18.5004C57.8945 18.5004 58.5847 19.1907 58.5847 20.0421Z" fill="#EF4444"/>
<path d="M67.835 20.0421C67.835 20.8936 67.1447 21.5839 66.2933 21.5839C65.4418 21.5839 64.7515 20.8936 64.7515 20.0421C64.7515 19.1907 65.4418 18.5004 66.2933 18.5004C67.1447 18.5004 67.835 19.1907 67.835 20.0421Z" fill="#EF4444"/>
<path d="M77.0852 20.0421C77.0852 20.8936 76.3949 21.5839 75.5435 21.5839C74.692 21.5839 74.0018 20.8936 74.0018 20.0421C74.0018 19.1907 74.692 18.5004 75.5435 18.5004C76.3949 18.5004 77.0852 19.1907 77.0852 20.0421Z" fill="#EF4444"/>
<path d="M3.08341 29.2924C3.08341 30.1438 2.39316 30.8341 1.5417 30.8341C0.690244 30.8341 0 30.1438 0 29.2924C0 28.4409 0.690244 27.7507 1.5417 27.7507C2.39316 27.7507 3.08341 28.4409 3.08341 29.2924Z" fill="#EF4444"/>
<path d="M12.3336 29.2924C12.3336 30.1438 11.6434 30.8341 10.7919 30.8341C9.94047 30.8341 9.25022 30.1438 9.25022 29.2924C9.25022 28.4409 9.94047 27.7507 10.7919 27.7507C11.6434 27.7507 12.3336 28.4409 12.3336 29.2924Z" fill="#EF4444"/>
<path d="M21.5839 29.2924C21.5839 30.1438 20.8936 30.8341 20.0421 30.8341C19.1907 30.8341 18.5004 30.1438 18.5004 29.2924C18.5004 28.4409 19.1907 27.7507 20.0421 27.7507C20.8936 27.7507 21.5839 28.4409 21.5839 29.2924Z" fill="#EF4444"/>
<path d="M30.8341 29.2924C30.8341 30.1438 30.1438 30.8341 29.2924 30.8341C28.4409 30.8341 27.7507 30.1438 27.7507 29.2924C27.7507 28.4409 28.4409 27.7507 29.2924 27.7507C30.1438 27.7507 30.8341 28.4409 30.8341 29.2924Z" fill="#EF4444"/>
<path d="M40.0843 29.2924C40.0843 30.1438 39.394 30.8341 38.5426 30.8341C37.6911 30.8341 37.0009 30.1438 37.0009 29.2924C37.0009 28.4409 37.6911 27.7507 38.5426 27.7507C39.394 27.7507 40.0843 28.4409 40.0843 29.2924Z" fill="#EF4444"/>
<path d="M49.3345 29.2924C49.3345 30.1438 48.6443 30.8341 47.7928 30.8341C46.9414 30.8341 46.2511 30.1438 46.2511 29.2924C46.2511 28.4409 46.9414 27.7507 47.7928 27.7507C48.6443 27.7507 49.3345 28.4409 49.3345 29.2924Z" fill="#EF4444"/>
<path d="M58.5847 29.2924C58.5847 30.1438 57.8945 30.8341 57.043 30.8341C56.1916 30.8341 55.5013 30.1438 55.5013 29.2924C55.5013 28.4409 56.1916 27.7507 57.043 27.7507C57.8945 27.7507 58.5847 28.4409 58.5847 29.2924Z" fill="#EF4444"/>
<path d="M67.835 29.2924C67.835 30.1438 67.1447 30.8341 66.2933 30.8341C65.4418 30.8341 64.7515 30.1438 64.7515 29.2924C64.7515 28.4409 65.4418 27.7507 66.2933 27.7507C67.1447 27.7507 67.835 28.4409 67.835 29.2924Z" fill="#EF4444"/>
<path d="M77.0852 29.2924C77.0852 30.1438 76.3949 30.8341 75.5435 30.8341C74.692 30.8341 74.0018 30.1438 74.0018 29.2924C74.0018 28.4409 74.692 27.7507 75.5435 27.7507C76.3949 27.7507 77.0852 28.4409 77.0852 29.2924Z" fill="#EF4444"/>
<path d="M86.3354 29.2924C86.3354 30.1438 85.6452 30.8341 84.7937 30.8341C83.9422 30.8341 83.252 30.1438 83.252 29.2924C83.252 28.4409 83.9422 27.7507 84.7937 27.7507C85.6452 27.7507 86.3354 28.4409 86.3354 29.2924Z" fill="#EF4444"/>
<path d="M3.08341 38.5426C3.08341 39.394 2.39316 40.0843 1.5417 40.0843C0.690244 40.0843 0 39.394 0 38.5426C0 37.6911 0.690244 37.0009 1.5417 37.0009C2.39316 37.0009 3.08341 37.6911 3.08341 38.5426Z" fill="#EF4444"/>
<path d="M12.3336 38.5426C12.3336 39.394 11.6434 40.0843 10.7919 40.0843C9.94047 40.0843 9.25022 39.394 9.25022 38.5426C9.25022 37.6911 9.94047 37.0009 10.7919 37.0009C11.6434 37.0009 12.3336 37.6911 12.3336 38.5426Z" fill="#EF4444"/>
<path d="M21.5839 38.5426C21.5839 39.394 20.8936 40.0843 20.0421 40.0843C19.1907 40.0843 18.5004 39.394 18.5004 38.5426C18.5004 37.6911 19.1907 37.0009 20.0421 37.0009C20.8936 37.0009 21.5839 37.6911 21.5839 38.5426Z" fill="#EF4444"/>
<path d="M30.8341 38.5426C30.8341 39.394 30.1438 40.0843 29.2924 40.0843C28.4409 40.0843 27.7507 39.394 27.7507 38.5426C27.7507 37.6911 28.4409 37.0009 29.2924 37.0009C30.1438 37.0009 30.8341 37.6911 30.8341 38.5426Z" fill="#EF4444"/>
<path d="M40.0843 38.5426C40.0843 39.394 39.394 40.0843 38.5426 40.0843C37.6911 40.0843 37.0009 39.394 37.0009 38.5426C37.0009 37.6911 37.6911 37.0009 38.5426 37.0009C39.394 37.0009 40.0843 37.6911 40.0843 38.5426Z" fill="#EF4444"/>
<path d="M49.3345 38.5426C49.3345 39.394 48.6443 40.0843 47.7928 40.0843C46.9414 40.0843 46.2511 39.394 46.2511 38.5426C46.2511 37.6911 46.9414 37.0009 47.7928 37.0009C48.6443 37.0009 49.3345 37.6911 49.3345 38.5426Z" fill="#EF4444"/>
<path d="M58.5847 38.5426C58.5847 39.394 57.8945 40.0843 57.043 40.0843C56.1916 40.0843 55.5013 39.394 55.5013 38.5426C55.5013 37.6911 56.1916 37.0009 57.043 37.0009C57.8945 37.0009 58.5847 37.6911 58.5847 38.5426Z" fill="#EF4444"/>
<path d="M67.835 38.5426C67.835 39.394 67.1447 40.0843 66.2933 40.0843C65.4418 40.0843 64.7515 39.394 64.7515 38.5426C64.7515 37.6911 65.4418 37.0009 66.2933 37.0009C67.1447 37.0009 67.835 37.6911 67.835 38.5426Z" fill="#EF4444"/>
<path d="M77.0852 38.5426C77.0852 39.394 76.3949 40.0843 75.5435 40.0843C74.692 40.0843 74.0018 39.394 74.0018 38.5426C74.0018 37.6911 74.692 37.0009 75.5435 37.0009C76.3949 37.0009 77.0852 37.6911 77.0852 38.5426Z" fill="#EF4444"/>
<path d="M86.3354 38.5426C86.3354 39.394 85.6452 40.0843 84.7937 40.0843C83.9422 40.0843 83.252 39.394 83.252 38.5426C83.252 37.6911 83.9422 37.0009 84.7937 37.0009C85.6452 37.0009 86.3354 37.6911 86.3354 38.5426Z" fill="#EF4444"/>
<path d="M3.08341 47.7928C3.08341 48.6443 2.39316 49.3345 1.5417 49.3345C0.690244 49.3345 0 48.6443 0 47.7928C0 46.9414 0.690244 46.2511 1.5417 46.2511C2.39316 46.2511 3.08341 46.9414 3.08341 47.7928Z" fill="#EF4444"/>
<path d="M12.3336 47.7928C12.3336 48.6443 11.6434 49.3345 10.7919 49.3345C9.94047 49.3345 9.25022 48.6443 9.25022 47.7928C9.25022 46.9414 9.94047 46.2511 10.7919 46.2511C11.6434 46.2511 12.3336 46.9414 12.3336 47.7928Z" fill="#EF4444"/>
<path d="M21.5839 47.7928C21.5839 48.6443 20.8936 49.3345 20.0421 49.3345C19.1907 49.3345 18.5004 48.6443 18.5004 47.7928C18.5004 46.9414 19.1907 46.2511 20.0421 46.2511C20.8936 46.2511 21.5839 46.9414 21.5839 47.7928Z" fill="#EF4444"/>
<path d="M30.8341 47.7928C30.8341 48.6443 30.1438 49.3345 29.2924 49.3345C28.4409 49.3345 27.7507 48.6443 27.7507 47.7928C27.7507 46.9414 28.4409 46.2511 29.2924 46.2511C30.1438 46.2511 30.8341 46.9414 30.8341 47.7928Z" fill="#EF4444"/>
<path d="M40.0843 47.7928C40.0843 48.6443 39.394 49.3345 38.5426 49.3345C37.6911 49.3345 37.0009 48.6443 37.0009 47.7928C37.0009 46.9414 37.6911 46.2511 38.5426 46.2511C39.394 46.2511 40.0843 46.9414 40.0843 47.7928Z" fill="#EF4444"/>
<path d="M49.3345 47.7928C49.3345 48.6443 48.6443 49.3345 47.7928 49.3345C46.9414 49.3345 46.2511 48.6443 46.2511 47.7928C46.2511 46.9414 46.9414 46.2511 47.7928 46.2511C48.6443 46.2511 49.3345 46.9414 49.3345 47.7928Z" fill="#EF4444"/>
<path d="M58.5847 47.7928C58.5847 48.6443 57.8945 49.3345 57.043 49.3345C56.1916 49.3345 55.5013 48.6443 55.5013 47.7928C55.5013 46.9414 56.1916 46.2511 57.043 46.2511C57.8945 46.2511 58.5847 46.9414 58.5847 47.7928Z" fill="#EF4444"/>
<path d="M67.835 47.7928C67.835 48.6443 67.1447 49.3345 66.2933 49.3345C65.4418 49.3345 64.7515 48.6443 64.7515 47.7928C64.7515 46.9414 65.4418 46.2511 66.2933 46.2511C67.1447 46.2511 67.835 46.9414 67.835 47.7928Z" fill="#EF4444"/>
<path d="M77.0852 47.7928C77.0852 48.6443 76.3949 49.3345 75.5435 49.3345C74.692 49.3345 74.0018 48.6443 74.0018 47.7928C74.0018 46.9414 74.692 46.2511 75.5435 46.2511C76.3949 46.2511 77.0852 46.9414 77.0852 47.7928Z" fill="#EF4444"/>
<path d="M86.3354 47.7928C86.3354 48.6443 85.6452 49.3345 84.7937 49.3345C83.9422 49.3345 83.252 48.6443 83.252 47.7928C83.252 46.9414 83.9422 46.2511 84.7937 46.2511C85.6452 46.2511 86.3354 46.9414 86.3354 47.7928Z" fill="#EF4444"/>
<path d="M3.08341 57.043C3.08341 57.8945 2.39316 58.5847 1.5417 58.5847C0.690244 58.5847 0 57.8945 0 57.043C0 56.1916 0.690244 55.5013 1.5417 55.5013C2.39316 55.5013 3.08341 56.1916 3.08341 57.043Z" fill="#EF4444"/>
<path d="M12.3336 57.043C12.3336 57.8945 11.6434 58.5847 10.7919 58.5847C9.94047 58.5847 9.25022 57.8945 9.25022 57.043C9.25022 56.1916 9.94047 55.5013 10.7919 55.5013C11.6434 55.5013 12.3336 56.1916 12.3336 57.043Z" fill="#EF4444"/>
<path d="M21.5839 57.043C21.5839 57.8945 20.8936 58.5847 20.0421 58.5847C19.1907 58.5847 18.5004 57.8945 18.5004 57.043C18.5004 56.1916 19.1907 55.5013 20.0421 55.5013C20.8936 55.5013 21.5839 56.1916 21.5839 57.043Z" fill="#EF4444"/>
<path d="M30.8341 57.043C30.8341 57.8945 30.1438 58.5847 29.2924 58.5847C28.4409 58.5847 27.7507 57.8945 27.7507 57.043C27.7507 56.1916 28.4409 55.5013 29.2924 55.5013C30.1438 55.5013 30.8341 56.1916 30.8341 57.043Z" fill="#EF4444"/>
<path d="M40.0843 57.043C40.0843 57.8945 39.394 58.5847 38.5426 58.5847C37.6911 58.5847 37.0009 57.8945 37.0009 57.043C37.0009 56.1916 37.6911 55.5013 38.5426 55.5013C39.394 55.5013 40.0843 56.1916 40.0843 57.043Z" fill="#EF4444"/>
<path d="M49.3345 57.043C49.3345 57.8945 48.6443 58.5847 47.7928 58.5847C46.9414 58.5847 46.2511 57.8945 46.2511 57.043C46.2511 56.1916 46.9414 55.5013 47.7928 55.5013C48.6443 55.5013 49.3345 56.1916 49.3345 57.043Z" fill="#EF4444"/>
<path d="M58.5847 57.043C58.5847 57.8945 57.8945 58.5847 57.043 58.5847C56.1916 58.5847 55.5013 57.8945 55.5013 57.043C55.5013 56.1916 56.1916 55.5013 57.043 55.5013C57.8945 55.5013 58.5847 56.1916 58.5847 57.043Z" fill="#EF4444"/>
<path d="M67.835 57.043C67.835 57.8945 67.1447 58.5847 66.2933 58.5847C65.4418 58.5847 64.7515 57.8945 64.7515 57.043C64.7515 56.1916 65.4418 55.5013 66.2933 55.5013C67.1447 55.5013 67.835 56.1916 67.835 57.043Z" fill="#EF4444"/>
<path d="M77.0852 57.043C77.0852 57.8945 76.3949 58.5847 75.5435 58.5847C74.692 58.5847 74.0018 57.8945 74.0018 57.043C74.0018 56.1916 74.692 55.5013 75.5435 55.5013C76.3949 55.5013 77.0852 56.1916 77.0852 57.043Z" fill="#EF4444"/>
<path d="M86.3354 57.043C86.3354 57.8945 85.6452 58.5847 84.7937 58.5847C83.9422 58.5847 83.252 57.8945 83.252 57.043C83.252 56.1916 83.9422 55.5013 84.7937 55.5013C85.6452 55.5013 86.3354 56.1916 86.3354 57.043Z" fill="#EF4444"/>
<path d="M12.3336 66.2933C12.3336 67.1447 11.6434 67.835 10.7919 67.835C9.94047 67.835 9.25022 67.1447 9.25022 66.2933C9.25022 65.4418 9.94047 64.7515 10.7919 64.7515C11.6434 64.7515 12.3336 65.4418 12.3336 66.2933Z" fill="#EF4444"/>
<path d="M21.5839 66.2933C21.5839 67.1447 20.8936 67.835 20.0421 67.835C19.1907 67.835 18.5004 67.1447 18.5004 66.2933C18.5004 65.4418 19.1907 64.7515 20.0421 64.7515C20.8936 64.7515 21.5839 65.4418 21.5839 66.2933Z" fill="#EF4444"/>
<path d="M30.8341 66.2933C30.8341 67.1447 30.1438 67.835 29.2924 67.835C28.4409 67.835 27.7507 67.1447 27.7507 66.2933C27.7507 65.4418 28.4409 64.7515 29.2924 64.7515C30.1438 64.7515 30.8341 65.4418 30.8341 66.2933Z" fill="#EF4444"/>
<path d="M40.0843 66.2933C40.0843 67.1447 39.394 67.835 38.5426 67.835C37.6911 67.835 37.0009 67.1447 37.0009 66.2933C37.0009 65.4418 37.6911 64.7515 38.5426 64.7515C39.394 64.7515 40.0843 65.4418 40.0843 66.2933Z" fill="#EF4444"/>
<path d="M49.3345 66.2933C49.3345 67.1447 48.6443 67.835 47.7928 67.835C46.9414 67.835 46.2511 67.1447 46.2511 66.2933C46.2511 65.4418 46.9414 64.7515 47.7928 64.7515C48.6443 64.7515 49.3345 65.4418 49.3345 66.2933Z" fill="#EF4444"/>
<path d="M58.5847 66.2933C58.5847 67.1447 57.8945 67.835 57.043 67.835C56.1916 67.835 55.5013 67.1447 55.5013 66.2933C55.5013 65.4418 56.1916 64.7515 57.043 64.7515C57.8945 64.7515 58.5847 65.4418 58.5847 66.2933Z" fill="#EF4444"/>
<path d="M67.835 66.2933C67.835 67.1447 67.1447 67.835 66.2933 67.835C65.4418 67.835 64.7515 67.1447 64.7515 66.2933C64.7515 65.4418 65.4418 64.7515 66.2933 64.7515C67.1447 64.7515 67.835 65.4418 67.835 66.2933Z" fill="#EF4444"/>
<path d="M77.0852 66.2933C77.0852 67.1447 76.3949 67.835 75.5435 67.835C74.692 67.835 74.0018 67.1447 74.0018 66.2933C74.0018 65.4418 74.692 64.7515 75.5435 64.7515C76.3949 64.7515 77.0852 65.4418 77.0852 66.2933Z" fill="#EF4444"/>
<path d="M21.5839 75.5435C21.5839 76.3949 20.8936 77.0852 20.0421 77.0852C19.1907 77.0852 18.5004 76.3949 18.5004 75.5435C18.5004 74.692 19.1907 74.0018 20.0421 74.0018C20.8936 74.0018 21.5839 74.692 21.5839 75.5435Z" fill="#EF4444"/>
<path d="M30.8341 75.5435C30.8341 76.3949 30.1438 77.0852 29.2924 77.0852C28.4409 77.0852 27.7507 76.3949 27.7507 75.5435C27.7507 74.692 28.4409 74.0018 29.2924 74.0018C30.1438 74.0018 30.8341 74.692 30.8341 75.5435Z" fill="#EF4444"/>
<path d="M40.0843 75.5435C40.0843 76.3949 39.394 77.0852 38.5426 77.0852C37.6911 77.0852 37.0009 76.3949 37.0009 75.5435C37.0009 74.692 37.6911 74.0018 38.5426 74.0018C39.394 74.0018 40.0843 74.692 40.0843 75.5435Z" fill="#EF4444"/>
<path d="M49.3345 75.5435C49.3345 76.3949 48.6443 77.0852 47.7928 77.0852C46.9414 77.0852 46.2511 76.3949 46.2511 75.5435C46.2511 74.692 46.9414 74.0018 47.7928 74.0018C48.6443 74.0018 49.3345 74.692 49.3345 75.5435Z" fill="#EF4444"/>
<path d="M58.5847 75.5435C58.5847 76.3949 57.8945 77.0852 57.043 77.0852C56.1916 77.0852 55.5013 76.3949 55.5013 75.5435C55.5013 74.692 56.1916 74.0018 57.043 74.0018C57.8945 74.0018 58.5847 74.692 58.5847 75.5435Z" fill="#EF4444"/>
<path d="M67.835 75.5435C67.835 76.3949 67.1447 77.0852 66.2933 77.0852C65.4418 77.0852 64.7515 76.3949 64.7515 75.5435C64.7515 74.692 65.4418 74.0018 66.2933 74.0018C67.1447 74.0018 67.835 74.692 67.835 75.5435Z" fill="#EF4444"/>
<path d="M30.8341 84.7937C30.8341 85.6452 30.1438 86.3354 29.2924 86.3354C28.4409 86.3354 27.7507 85.6452 27.7507 84.7937C27.7507 83.9422 28.4409 83.252 29.2924 83.252C30.1438 83.252 30.8341 83.9422 30.8341 84.7937Z" fill="#EF4444"/>
<path d="M40.0843 84.7937C40.0843 85.6452 39.394 86.3354 38.5426 86.3354C37.6911 86.3354 37.0009 85.6452 37.0009 84.7937C37.0009 83.9422 37.6911 83.252 38.5426 83.252C39.394 83.252 40.0843 83.9422 40.0843 84.7937Z" fill="#EF4444"/>
<path d="M49.3345 84.7937C49.3345 85.6452 48.6443 86.3354 47.7928 86.3354C46.9414 86.3354 46.2511 85.6452 46.2511 84.7937C46.2511 83.9422 46.9414 83.252 47.7928 83.252C48.6443 83.252 49.3345 83.9422 49.3345 84.7937Z" fill="#EF4444"/>
<path d="M58.5847 84.7937C58.5847 85.6452 57.8945 86.3354 57.043 86.3354C56.1916 86.3354 55.5013 85.6452 55.5013 84.7937C55.5013 83.9422 56.1916 83.252 57.043 83.252C57.8945 83.252 58.5847 83.9422 58.5847 84.7937Z" fill="#EF4444"/>
</g>
</svg>
