<svg width="398" height="573" viewBox="0 0 398 573" fill="none" xmlns="http://www.w3.org/2000/svg">
<path d="M347.157 234.732C383.769 277.231 400.576 326.371 397.576 382.17C394.594 421.333 382.27 456.078 360.583 486.42C338.91 516.778 311.621 539.455 278.72 554.483C249.078 568.024 216.564 573.998 181.14 572.403L186.257 495.612C222.148 496.995 252.757 486.545 278.114 464.237C303.472 441.946 317.749 412.995 320.952 377.409C322.751 342.465 312.292 311.858 289.573 285.566C266.143 259.617 237.036 245.273 202.227 242.546L207.35 165.769C263.217 170.137 309.815 193.136 347.157 234.732ZM188.173 407.188C132.664 402.358 86.4203 378.927 49.4468 336.88C13.4189 293.833 -2.8075 244.411 0.764617 188.633C5.72119 132.801 29.2145 86.387 71.2784 49.4016C114.326 13.3864 163.804 -2.73108 219.691 1.06457L213.715 77.8248C178.786 75.4511 147.949 85.4531 121.222 107.806C95.1463 131.005 80.5762 159.932 77.5298 194.602C75.2704 229.193 85.3317 259.853 107.691 286.579C130.656 312.757 159.463 327.379 194.139 330.432L188.173 407.188Z" fill="#C33626"/>
</svg>
